<svg width="64" height="64" viewBox="0 0 64 64" fill="none" xmlns="http://www.w3.org/2000/svg">
<circle cx="32" cy="32" r="32" fill="white"/>
<path d="M50.0364 46.8085C49.8462 46.7567 49.6157 46.7855 49.3507 46.8834C45.8009 48.5067 42.3492 49.6637 38.9953 50.3488C31.7518 51.8224 24.6927 51.0511 17.8237 48.0404C15.9163 47.2 13.2655 45.7839 9.87135 43.7806C9.7839 43.7117 9.6772 43.6714 9.56594 43.6655C9.45069 43.6597 9.35272 43.6713 9.26052 43.7173C9.16832 43.7634 9.09917 43.8209 9.04731 43.8958C8.99544 43.9706 8.98392 44.0742 9.02426 44.2066C9.05883 44.3333 9.14527 44.4772 9.28933 44.6326C9.88864 45.3349 10.632 46.0832 11.5137 46.8776C12.3954 47.672 13.5652 48.57 15.0231 49.5716C16.481 50.5733 18.0081 51.4655 19.5928 52.2426C21.1833 53.0198 23.0273 53.676 25.1306 54.2056C27.234 54.7352 29.3373 55 31.4349 55C33.5209 55 35.5493 54.787 37.5144 54.3725C39.4852 53.9523 41.1448 53.4573 42.499 52.8816C43.8474 52.3117 45.0921 51.6728 46.2331 50.982C47.3741 50.2912 48.2154 49.704 48.7629 49.2378C49.3103 48.7657 49.7022 48.3973 49.9269 48.121C50.192 47.7929 50.3245 47.5108 50.3245 47.2633C50.3303 47.0043 50.2266 46.8546 50.0364 46.8085ZM32.887 22.5853C32.0111 22.6601 30.9566 22.8213 29.7176 23.0631C28.4787 23.2991 27.3319 23.5984 26.2716 23.9496C25.2113 24.3007 24.1279 24.79 23.0273 25.4117C21.9209 26.0334 20.9816 26.7472 20.2036 27.5416C19.4257 28.336 18.7918 29.3319 18.2962 30.535C17.8006 31.7323 17.5528 33.0506 17.5528 34.4897C17.5528 36.0497 17.8237 37.437 18.3769 38.6631C18.9243 39.8893 19.6562 40.8506 20.5782 41.5644C21.4944 42.2782 22.5375 42.8366 23.69 43.2453C24.8425 43.654 26.0642 43.8382 27.3319 43.7864C28.5997 43.7346 29.8386 43.5389 31.043 43.1935C32.2416 42.8538 33.3711 42.307 34.4199 41.5644C35.4687 40.8218 36.3273 39.9411 37.0015 38.9337C37.2493 39.3136 37.4683 39.5957 37.6642 39.7799L38.1655 40.2922C38.4998 40.6318 39.0126 41.1326 39.7041 41.7946C40.3899 42.4566 41.0929 43.1014 41.7959 43.7346L47.8121 37.9839L47.4663 37.7018C47.2185 37.5118 46.9246 37.2413 46.5904 36.8786C46.2562 36.5217 45.9219 36.1245 45.5992 35.6985C45.2708 35.2726 44.9884 34.7717 44.7521 34.2076C44.5159 33.6435 44.3949 33.0966 44.3949 32.567V17.439C44.3949 16.8576 44.2854 16.2301 44.0664 15.5509C43.8417 14.8774 43.4498 14.1405 42.8735 13.3461C42.2973 12.5517 41.5827 11.8379 40.7299 11.2162C39.8713 10.5945 38.7303 10.0649 37.2954 9.63897C35.8663 9.21299 34.2643 9 32.5009 9C30.6973 9 29.0203 9.21299 27.4529 9.62746C25.8913 10.0477 24.5544 10.6061 23.4364 11.3083C22.3243 12.0106 21.3677 12.8223 20.5724 13.7491C19.7772 14.6759 19.1837 15.643 18.7976 16.6504C18.4115 17.6577 18.2155 18.6766 18.2155 19.707L26.0065 20.3921C26.3235 19.448 26.7499 18.6306 27.2743 17.9283C27.8044 17.226 28.3058 16.7194 28.761 16.4028C29.222 16.0862 29.7176 15.8329 30.242 15.643C30.7722 15.453 31.1294 15.3551 31.3138 15.3321C31.4983 15.3149 31.6423 15.3091 31.7518 15.3091C33.2904 15.3091 34.3565 15.7639 34.9558 16.6676C35.3304 17.2145 35.5148 18.0434 35.5148 19.1602V22.4183C34.6388 22.4529 33.7629 22.5104 32.887 22.5853ZM35.5205 31.3294C35.5205 32.2849 35.3937 33.1542 35.146 33.9198C34.6158 35.5949 33.6073 36.6484 32.1264 37.0743C30.8356 37.4543 29.6081 37.2643 28.4441 36.5102C27.2051 35.7043 26.5885 34.5645 26.5885 33.0966C26.5885 31.9511 26.8767 30.9725 27.4529 30.155C28.0292 29.3434 28.7956 28.7332 29.758 28.3302C30.7203 27.9273 31.6596 27.6395 32.5816 27.4725C33.4979 27.2998 34.4833 27.1962 35.5205 27.1617V31.3294ZM54.8366 43.9303C54.5888 43.6194 53.9204 43.418 52.8255 43.3144C51.7306 43.2107 50.7798 43.2165 49.9615 43.3374C49.0798 43.441 48.1693 43.6943 47.2358 44.1087C46.2965 44.5175 45.8874 44.8628 45.9911 45.1334L46.0314 45.2082L46.0833 45.2485L46.164 45.26H46.4291C46.4752 45.26 46.5328 45.2543 46.6134 45.2485C46.6941 45.2428 46.769 45.2313 46.8382 45.2255C46.9073 45.2197 47.0053 45.2082 47.1321 45.2025C47.2531 45.1967 47.3683 45.1795 47.4778 45.1622C47.4951 45.1622 47.6911 45.1449 48.0714 45.1104C48.4517 45.0758 48.7283 45.0528 48.8954 45.0355C49.0625 45.0183 49.3449 45.001 49.731 44.9837C50.1171 44.9665 50.4283 44.9665 50.6588 44.9837C50.8893 45.001 51.1486 45.024 51.4425 45.0471C51.7364 45.0701 51.9726 45.1219 52.157 45.2025C52.3414 45.2773 52.4797 45.3752 52.5662 45.4961C52.8658 45.876 52.8082 46.7164 52.3933 48.0232C51.9784 49.3299 51.5865 50.3718 51.2177 51.1432C51.0564 51.4713 51.0564 51.6728 51.2177 51.7591C51.3791 51.8455 51.6038 51.7649 51.9035 51.5288C52.8024 50.8266 53.5516 49.7674 54.1566 48.3455C54.5082 47.5051 54.7617 46.6301 54.9115 45.7148C55.0498 44.7995 55.0268 44.2066 54.8366 43.9303Z" fill="#F16529"/>
</svg>
