<svg width="64" height="64" viewBox="0 0 64 64" fill="none" xmlns="http://www.w3.org/2000/svg">
<circle cx="32" cy="32" r="32" fill="white"/>
<g clip-path="url(#clip0_18_55)">
<path d="M32.0032 3C15.9853 3 3 15.9853 3 32.0032C3 48.0212 15.9853 61.0064 32.0032 61.0064C48.0212 61.0064 61.0064 48.0212 61.0064 32.0032C61 15.9853 48.0212 3 32.0032 3Z" fill="url(#paint0_linear_18_55)"/>
<path d="M58.674 32.0031C58.674 46.7361 46.7361 58.674 32.0031 58.674C17.2702 58.674 5.33228 46.7296 5.33228 32.0031C5.33228 17.2767 17.2702 5.33228 32.0031 5.33228C46.7361 5.33228 58.674 17.2702 58.674 32.0031Z" fill="url(#paint1_linear_18_55)"/>
<path d="M31.3543 24.3187C31.3543 23.2007 30.3134 21.6779 29.4396 20.8427C28.0389 19.4934 26.182 18.7031 23.8304 18.4589C21.3888 18.2019 18.3369 18.9729 16.2423 20.3672C15.0729 21.1446 14.6167 21.7358 14.4882 22.6546C14.4497 22.9116 14.4368 27.2871 14.4432 33.4938C14.4561 39.3793 14.4689 42.4312 14.4754 43.8512C14.4754 44.2752 14.9572 44.5194 15.3042 44.2688C15.5612 44.0825 18.2534 42.3798 19.7376 42.065C20.8298 41.7823 21.7101 41.6731 22.8473 41.6731C25.5459 41.6731 27.8269 42.6111 29.5552 44.4295C30.6861 45.5924 31.3478 47.6356 31.3478 47.6356C31.3478 47.6356 31.3543 27.7754 31.3543 24.3187ZM32.6329 47.6228C32.6329 47.6228 33.3011 45.5796 34.4255 44.4166C36.1539 42.5983 38.4348 41.6602 41.1334 41.6602C42.2642 41.6602 43.1509 41.7694 44.2432 42.0521C45.7338 42.367 48.4259 44.0761 48.6765 44.256C49.0171 44.5066 49.5054 44.2624 49.5054 43.8383C49.5118 42.4119 49.5311 39.3664 49.5375 33.481C49.5504 27.2742 49.5311 22.8987 49.4925 22.6417C49.364 21.7293 48.9143 21.1382 47.7385 20.3543C45.6438 18.9601 42.5919 18.1955 40.1503 18.4461C37.7987 18.6902 35.9418 19.4805 34.5412 20.8298C33.6673 21.6715 32.6265 23.1943 32.6265 24.3058C32.6329 27.7754 32.6329 47.6228 32.6329 47.6228Z" fill="url(#paint2_linear_18_55)"/>
</g>
<defs>
<linearGradient id="paint0_linear_18_55" x1="32.0012" y1="3.51283" x2="32.0012" y2="60.4579" gradientUnits="userSpaceOnUse">
<stop stop-color="#FFBB1C"/>
<stop offset="1" stop-color="#AE1A00"/>
</linearGradient>
<linearGradient id="paint1_linear_18_55" x1="32.0011" y1="5.80162" x2="32.0011" y2="58.1715" gradientUnits="userSpaceOnUse">
<stop stop-color="#FEC216"/>
<stop offset="1" stop-color="#DD4C01"/>
</linearGradient>
<linearGradient id="paint2_linear_18_55" x1="31.9932" y1="18.7843" x2="31.9932" y2="47.4736" gradientUnits="userSpaceOnUse">
<stop stop-color="#EEEEEE"/>
<stop offset="1" stop-color="#D0D0CD"/>
</linearGradient>
<clipPath id="clip0_18_55">
<rect width="58" height="58" fill="white" transform="translate(3 3)"/>
</clipPath>
</defs>
</svg>
