<svg width="64" height="64" viewBox="0 0 64 64" fill="none" xmlns="http://www.w3.org/2000/svg">
<circle cx="32" cy="32" r="32" fill="white"/>
<path d="M50.2102 35.6839C49.8499 34.6566 49.5926 33.4238 49.2838 31.8827C49.4897 34.8621 49.4897 35.6839 49.4897 38.3037V43.9542H45.7328V21.866H49.4382C49.4382 21.866 51.085 28.3897 51.4968 29.7253C51.857 31.1122 52.1658 32.1909 52.2687 33.2183C52.1658 31.0095 52.1658 28.3897 52.1658 26.1809V21.7119H55.7683V43.8001H52.629L50.1587 35.5812L50.2102 35.6839ZM18.6015 37.4305C18.6015 42.0536 16.543 43.7487 12.9405 43.7487H8V21.6605H12.992C16.9032 21.6605 17.9325 23.9207 17.9325 27.6706C17.9325 30.4444 16.9032 31.8827 15.2049 31.9855C17.1091 31.9855 18.6015 33.8861 18.6015 37.4305ZM12.6317 24.3317H11.8598V30.7526H12.8891C13.9183 30.7526 14.0727 29.7253 14.0727 27.876C14.0727 25.3076 13.8154 24.2803 12.5288 24.2803L12.6317 24.3317ZM12.7347 33.321H11.9112V41.1803H12.9405C14.1242 41.1803 14.4844 40.4612 14.4844 37.0709C14.4844 34.6566 14.1242 33.3724 12.7861 33.3724L12.7347 33.321Z" fill="#2E3192"/>
<path d="M42.3719 34.2803C42.269 34.9994 41.8573 35.5645 41.0338 35.5645C39.3355 35.5645 40.6736 32.9961 39.0782 32.9961C38.1519 32.9961 37.5343 33.818 36.505 35.9754L34.9611 39.6739L35.2699 40.3417C36.2992 41.7286 37.2255 42.7046 38.3577 42.7046C38.9753 42.7046 39.6443 42.3964 40.6736 41.369L41.1882 42.0882C40.056 43.4751 38.615 44.2456 37.3285 44.2456C35.7845 44.2456 34.4465 42.8587 33.4687 41.78C32.0277 43.321 30.3808 44.2456 28.1164 44.2456C24.8742 44.2456 21.9408 42.1909 22.6613 37.5678C23.2788 34.7939 25.3888 32.9447 27.8076 31.4037C27.0872 29.5544 26.6754 27.2942 26.9842 25.5991C27.5503 22.0547 30.7411 20 33.4687 20C36.6594 20 38.1004 22.1574 37.5858 24.6231C37.3285 25.9073 36.7624 27.0888 35.4243 28.2189C34.0348 29.4517 31.7189 30.5304 30.4323 31.3009C31.2557 33.3556 32.4909 35.6672 34.2406 38.6465C34.7553 37.6192 35.5272 35.7699 36.2992 34.2803C36.9682 32.7392 38.0489 31.8146 39.6443 31.8146C41.8573 31.8146 42.4748 33.3556 42.3719 34.2803ZM25.1315 38.1329C24.8227 40.0335 26.0064 42.6019 29.0942 42.6019C30.6382 42.6019 31.6674 42.1909 32.6967 40.9067C30.7411 38.1329 29.3516 35.4617 28.2194 32.7906C26.6754 34.1262 25.5432 35.6158 25.1315 38.1329ZM34.6523 26.986C35.3214 26.1128 35.5272 25.445 35.6816 24.7258C36.0419 22.8766 34.9611 21.6438 33.3657 21.6438C31.3072 21.6438 29.7633 23.3389 29.6603 24.9313C29.3001 26.6778 29.506 28.373 30.0721 30.1708C31.3072 29.4517 33.8804 27.8593 34.7038 26.986H34.6523Z" fill="#2E3192"/>
</svg>
