<svg width="165" height="132" viewBox="0 0 165 132" fill="none" xmlns="http://www.w3.org/2000/svg">
<path d="M0 95C3.21522 91.732 6.92509 88.7255 11.0678 86.1765C17.3746 82.2549 24.6706 79.183 32.585 77.2876C38.7063 75.8497 45.2604 75 52 75C73.2699 75 92.1902 82.8431 104 95C92.1902 107.157 73.2699 115 52 115C30.7301 115 38.7063 114.216 32.585 112.712C24.6706 110.817 17.3746 107.745 11.0678 103.824C6.92509 101.209 3.21522 98.268 0 95Z" fill="#21472A"/>
<path d="M24.6983 13.3077C29.3927 13.6635 34.2403 14.5825 39.0518 16.1466C46.4072 18.5004 53.8259 22.1982 60.8036 27.1653C66.1795 31.0258 71.4219 35.6182 76.1623 40.922C91.1225 57.6607 98.5911 77.7689 97.847 95.1517C80.4901 93.9469 61.3433 84.276 46.3831 67.5374C31.4228 50.7988 37.6168 56.5539 34.4305 50.7364C30.275 43.2469 27.4303 35.4612 25.9139 27.8886C24.9465 22.8889 24.5268 18.0124 24.6983 13.3077Z" fill="#24943C"/>
<path d="M80.5215 132V22.8691H124.174C136.186 22.8691 145.219 25.5059 151.273 30.7793C157.328 36.0039 160.355 42.6934 160.355 50.8477C160.355 57.2441 158.476 62.4443 154.716 66.4482C151.005 70.4033 146.317 73.0156 140.653 74.2852V75.3838C144.804 75.5791 148.686 76.751 152.299 78.8994C155.961 81.0479 158.915 84.0752 161.161 87.9814C163.456 91.8389 164.604 96.4531 164.604 101.824C164.604 107.586 163.188 112.762 160.355 117.352C157.523 121.893 153.324 125.481 147.758 128.118C142.191 130.706 135.307 132 127.104 132H80.5215ZM120.658 68.5723C125.346 68.5723 129.252 67.3271 132.377 64.8369C135.502 62.3467 137.064 58.9531 137.064 54.6562C137.064 50.75 135.673 47.6006 132.89 45.208C130.106 42.7666 126.176 41.5459 121.098 41.5459H103.52V68.5723H120.658ZM122.343 113.177C128.788 113.177 133.476 111.932 136.405 109.441C139.384 106.951 140.873 103.655 140.873 99.5537C140.873 95.0615 139.262 91.375 136.039 88.4941C132.816 85.5645 128.446 84.0996 122.929 84.0996H103.52V113.177H122.343Z" fill="white"/>
</svg>
