<svg width="721" height="134" viewBox="0 0 721 134" fill="none" xmlns="http://www.w3.org/2000/svg">
<path d="M0 95C3.21522 91.732 6.92509 88.7255 11.0678 86.1765C17.3746 82.2549 24.6706 79.183 32.585 77.2876C38.7063 75.8497 45.2604 75 52 75C73.2699 75 92.1902 82.8431 104 95C92.1902 107.157 73.2699 115 52 115C30.7301 115 38.7063 114.216 32.585 112.712C24.6706 110.817 17.3746 107.745 11.0678 103.824C6.92509 101.209 3.21522 98.268 0 95Z" fill="#21472A"/>
<path d="M24.6983 13.3077C29.3927 13.6635 34.2403 14.5825 39.0518 16.1466C46.4072 18.5004 53.8259 22.1982 60.8036 27.1653C66.1795 31.0258 71.4219 35.6182 76.1623 40.922C91.1225 57.6607 98.5911 77.7689 97.847 95.1517C80.4901 93.9469 61.3433 84.276 46.3831 67.5374C31.4228 50.7988 37.6168 56.5539 34.4305 50.7364C30.275 43.2469 27.4303 35.4612 25.9139 27.8886C24.9465 22.8889 24.5268 18.0124 24.6983 13.3077Z" fill="#24943C"/>
<path d="M720.131 22.8691V132H697.426V22.8691H720.131Z" fill="white"/>
<path d="M686.762 22.8691V132H664.057V22.8691H686.762Z" fill="white"/>
<path d="M607.323 133.538C599.511 133.538 593.017 131.512 587.841 127.459C582.714 123.357 580.15 117.254 580.15 109.148C580.15 103.045 581.566 98.2598 584.398 94.793C587.279 91.2773 591.063 88.7139 595.751 87.1025C600.438 85.4424 605.468 84.3682 610.839 83.8799C617.968 83.1963 623.046 82.4883 626.073 81.7559C629.149 80.9746 630.688 79.2656 630.688 76.6289V76.2627C630.688 72.8936 629.613 70.2812 627.465 68.4258C625.316 66.5703 622.216 65.6426 618.163 65.6426C614.11 65.6426 610.79 66.5215 608.202 68.2793C605.663 70.0371 603.979 72.2832 603.148 75.0176L582.494 71.7217C584.447 64.5928 588.549 59.0508 594.799 55.0957C601.098 51.0918 608.91 49.0898 618.236 49.0898C624.291 49.0898 629.979 50.042 635.302 51.9463C640.673 53.8506 645.019 56.8535 648.339 60.9551C651.659 65.0078 653.319 70.2812 653.319 76.7754V132H631.859V120.574H631.2C629.198 124.432 626.22 127.557 622.265 129.949C618.358 132.342 613.378 133.538 607.323 133.538ZM601.757 108.416C601.757 111.541 602.88 113.909 605.126 115.521C607.421 117.083 610.302 117.864 613.769 117.864C618.749 117.864 622.826 116.424 626 113.543C629.223 110.662 630.834 107.073 630.834 102.776V94.0605C629.955 94.6465 628.563 95.1836 626.659 95.6719C624.804 96.1602 622.826 96.5752 620.727 96.917C618.627 97.21 616.747 97.4785 615.087 97.7227C611.083 98.3086 607.86 99.4561 605.419 101.165C602.978 102.825 601.757 105.242 601.757 108.416Z" fill="white"/>
<path d="M520.268 84.6855V132H497.562V22.8691H519.535V64.6904H520.561C522.416 59.8564 525.395 56.0479 529.496 53.2646C533.646 50.4814 538.822 49.0898 545.023 49.0898C553.52 49.0898 560.355 51.8242 565.531 57.293C570.707 62.7617 573.295 70.3057 573.295 79.9248V132H550.663V83.9531C550.663 78.875 549.394 74.9443 546.854 72.1611C544.315 69.3291 540.678 67.9131 535.941 67.9131C531.352 67.9131 527.592 69.4023 524.662 72.3809C521.732 75.3105 520.268 79.4121 520.268 84.6855Z" fill="white"/>
<path d="M488.803 73.4795L468.148 74.7246C467.562 72.1367 466.098 69.915 463.754 68.0596C461.459 66.1553 458.334 65.2031 454.379 65.2031C450.863 65.2031 447.909 65.9355 445.517 67.4004C443.124 68.8652 441.928 70.8184 441.928 73.2598C441.928 75.2129 442.709 76.873 444.271 78.2402C445.834 79.6074 448.495 80.7061 452.255 81.5361L467.123 84.4658C482.846 87.5908 490.707 94.9639 490.707 106.585C490.707 112.005 489.145 116.741 486.02 120.794C482.895 124.847 478.598 127.996 473.129 130.242C467.66 132.488 461.386 133.611 454.306 133.611C443.466 133.611 434.848 131.365 428.451 126.873C422.055 122.332 418.295 116.155 417.172 108.343L439.438 107.171C440.951 113.909 445.932 117.278 454.379 117.278C458.334 117.278 461.532 116.497 463.974 114.935C466.415 113.372 467.636 111.395 467.636 109.002C467.636 104.949 464.145 102.215 457.162 100.799L443.026 97.8691C427.255 94.6953 419.369 86.9316 419.369 74.5781C419.369 66.668 422.519 60.4424 428.817 55.9014C435.165 51.3604 443.563 49.0898 454.013 49.0898C464.364 49.0898 472.519 51.2871 478.476 55.6816C484.433 60.0273 487.875 65.96 488.803 73.4795Z" fill="white"/>
<path d="M341.029 22.8691H363.734V81.2432H364.979L391.127 50.1152H417.201L386.879 85.6377L418.666 132H392.152L369.887 98.9678L363.734 105.926V132H341.029V22.8691Z" fill="white"/>
<path d="M293.305 133.611C285.053 133.611 277.899 131.854 271.845 128.338C265.839 124.773 261.2 119.842 257.929 113.543C254.706 107.195 253.095 99.8223 253.095 91.4238C253.095 82.9766 254.706 75.5791 257.929 69.2314C261.2 62.8838 265.839 57.9521 271.845 54.4365C277.899 50.8721 285.053 49.0898 293.305 49.0898C301.605 49.0898 308.759 50.8721 314.765 54.4365C320.819 57.9521 325.458 62.8838 328.681 69.2314C331.952 75.5791 333.588 82.9766 333.588 91.4238C333.588 99.8223 331.952 107.195 328.681 113.543C325.458 119.842 320.819 124.773 314.765 128.338C308.759 131.854 301.605 133.611 293.305 133.611ZM276.166 91.2773C276.166 98.4062 277.606 104.29 280.487 108.929C283.368 113.567 287.665 115.887 293.378 115.887C299.042 115.887 303.314 113.567 306.195 108.929C309.076 104.29 310.517 98.4062 310.517 91.2773C310.517 84.1484 309.076 78.2891 306.195 73.6992C303.314 69.1094 299.042 66.8145 293.378 66.8145C287.665 66.8145 283.368 69.1094 280.487 73.6992C277.606 78.2891 276.166 84.1484 276.166 91.2773Z" fill="white"/>
<path d="M208.666 133.611C200.414 133.611 193.261 131.854 187.206 128.338C181.2 124.773 176.562 119.842 173.29 113.543C170.067 107.195 168.456 99.8223 168.456 91.4238C168.456 82.9766 170.067 75.5791 173.29 69.2314C176.562 62.8838 181.2 57.9521 187.206 54.4365C193.261 50.8721 200.414 49.0898 208.666 49.0898C216.967 49.0898 224.12 50.8721 230.126 54.4365C236.181 57.9521 240.819 62.8838 244.042 69.2314C247.313 75.5791 248.949 82.9766 248.949 91.4238C248.949 99.8223 247.313 107.195 244.042 113.543C240.819 119.842 236.181 124.773 230.126 128.338C224.12 131.854 216.967 133.611 208.666 133.611ZM191.527 91.2773C191.527 98.4062 192.968 104.29 195.849 108.929C198.729 113.567 203.026 115.887 208.739 115.887C214.403 115.887 218.676 113.567 221.557 108.929C224.438 104.29 225.878 98.4062 225.878 91.2773C225.878 84.1484 224.438 78.2891 221.557 73.6992C218.676 69.1094 214.403 66.8145 208.739 66.8145C203.026 66.8145 198.729 69.1094 195.849 73.6992C192.968 78.2891 191.527 84.1484 191.527 91.2773Z" fill="white"/>
<path d="M80.5215 132V22.8691H124.174C136.186 22.8691 145.219 25.5059 151.273 30.7793C157.328 36.0039 160.355 42.6934 160.355 50.8477C160.355 57.2441 158.476 62.4443 154.716 66.4482C151.005 70.4033 146.317 73.0156 140.653 74.2852V75.3838C144.804 75.5791 148.686 76.751 152.299 78.8994C155.961 81.0479 158.915 84.0752 161.161 87.9814C163.456 91.8389 164.604 96.4531 164.604 101.824C164.604 107.586 163.188 112.762 160.355 117.352C157.523 121.893 153.324 125.481 147.758 128.118C142.191 130.706 135.307 132 127.104 132H80.5215ZM120.658 68.5723C125.346 68.5723 129.252 67.3271 132.377 64.8369C135.502 62.3467 137.064 58.9531 137.064 54.6562C137.064 50.75 135.673 47.6006 132.89 45.208C130.106 42.7666 126.176 41.5459 121.098 41.5459H103.52V68.5723H120.658ZM122.343 113.177C128.788 113.177 133.476 111.932 136.405 109.441C139.384 106.951 140.873 103.655 140.873 99.5537C140.873 95.0615 139.262 91.375 136.039 88.4941C132.816 85.5645 128.446 84.0996 122.929 84.0996H103.52V113.177H122.343Z" fill="white"/>
</svg>
