<svg width="64" height="64" viewBox="0 0 64 64" fill="none" xmlns="http://www.w3.org/2000/svg">
<circle cx="32" cy="32" r="32" fill="white"/>
<path d="M55.04 32.5333C55.04 30.56 54.8799 29.12 54.5333 27.6267H32V36.5333H45.2266C44.96 38.7467 43.52 42.08 40.3199 44.3199L40.2751 44.6181L47.3997 50.1374L47.8933 50.1867C52.4266 46 55.04 39.84 55.04 32.5333Z" fill="#4285F4"/>
<path d="M31.9999 56C38.4798 56 43.9197 53.8666 47.8932 50.1867L40.3198 44.3199C38.2932 45.7332 35.5731 46.7199 31.9999 46.7199C25.6532 46.7199 20.2666 42.5334 18.3464 36.7467L18.065 36.7706L10.6567 42.5039L10.5598 42.7733C14.5064 50.6132 22.6131 56 31.9999 56Z" fill="#34A853"/>
<path d="M18.3466 36.7467C17.8399 35.2534 17.5467 33.6533 17.5467 32C17.5467 30.3466 17.8399 28.7467 18.3199 27.2533L18.3065 26.9353L10.8054 21.1099L10.5599 21.2266C8.93334 24.48 8 28.1334 8 32C8 35.8667 8.93334 39.5199 10.5599 42.7733L18.3466 36.7467Z" fill="#FBBC05"/>
<path d="M31.9999 17.2799C36.5065 17.2799 39.5464 19.2266 41.2798 20.8534L48.0531 14.24C43.8932 10.3733 38.4798 8 31.9999 8C22.6131 8 14.5064 13.3866 10.5598 21.2266L18.3198 27.2533C20.2666 21.4667 25.6532 17.2799 31.9999 17.2799Z" fill="#EB4335"/>
</svg>
