<svg width="64" height="64" viewBox="0 0 64 64" fill="none" xmlns="http://www.w3.org/2000/svg">
<circle cx="32" cy="32" r="32" fill="white"/>
<path d="M12.4368 18V35.272H15.226V29.2643L19.4099 35.272H22.7356L18.0153 28.5134L22.4138 23.364H19.0881L15.226 27.8697V18H12.4368Z" fill="#00BEDF"/>
<path d="M27.7777 33.5555C29.816 33.5555 30.0306 31.5172 30.0306 29.2643C30.0306 27.0115 29.7087 24.9731 27.7777 24.9731C25.7394 24.9731 25.5248 27.0115 25.5248 29.2643C25.5248 31.5172 25.7394 33.5555 27.7777 33.5555ZM22.521 29.2643C22.521 25.4023 24.3447 23.0421 27.7777 23.0421C31.2106 23.0421 33.0344 25.4023 33.0344 29.2643C33.0344 33.1264 31.2106 35.4865 27.7777 35.4865C24.3447 35.4865 22.521 33.2337 22.521 29.2643Z" fill="#00BEDF"/>
<path d="M39.4712 33.5555C41.295 33.5555 41.5095 31.1954 41.5095 29.2643C41.5095 27.1187 41.295 24.8659 39.4712 24.8659C37.7548 24.8659 37.3256 27.3333 37.3256 29.2643C37.3256 32.2682 37.7548 33.5555 39.4712 33.5555ZM37.3256 24.7586C37.7548 24.1149 38.613 23.0421 40.4367 23.0421C43.3333 23.0421 44.5134 25.5096 44.5134 29.2643C44.5134 32.59 43.3333 35.4865 39.4712 35.4865C36.3601 35.4865 34.5364 33.6628 34.5364 30.1226V18H37.3256V24.7586Z" fill="#00BEDF"/>
<path d="M51.1647 33.5555C53.203 33.5555 53.4175 31.5172 53.4175 29.2643C53.4175 27.0115 53.0957 24.9731 51.1647 24.9731C49.1263 24.9731 48.9118 27.0115 48.9118 29.2643C48.8045 31.5172 49.1263 33.5555 51.1647 33.5555ZM45.908 29.2643C45.908 25.4023 47.7317 23.0421 51.1647 23.0421C54.5976 23.0421 56.4213 25.4023 56.4213 29.2643C56.4213 33.1264 54.5976 35.4865 51.1647 35.4865C47.7317 35.4865 45.908 33.2337 45.908 29.2643Z" fill="#00BEDF"/>
<path d="M46.0152 39.3486C42.7968 39.3486 40.544 39.4559 39.3639 39.5632C38.1838 39.7777 37.111 40.0995 36.1455 40.6359C34.9654 41.2796 34.2145 42.2451 33.8926 43.3179H33.5708C33.3562 42.3524 32.7126 41.4942 31.6398 40.8505C30.7815 40.3141 29.816 39.9923 28.636 39.6704C27.4559 39.4559 25.954 39.3486 24.1302 39.3486H19.839H14.1532C12.9732 39.3486 12.0076 39.3486 11.0421 39.3486L6 42.2451C7.28735 42.3524 8.68199 42.4597 10.2912 42.4597H14.7969L21.5555 42.3524L26.4904 42.2451C28.636 42.2451 30.2451 42.567 31.3179 43.1034C32.3907 43.6398 33.0344 44.6053 33.249 45.9999H34.1072C34.3218 45.0344 34.7509 44.2834 35.2873 43.6398C35.8237 43.1034 36.4674 42.7815 37.3256 42.4597C38.1838 42.2451 39.3639 42.1379 40.8658 42.1379H45.0497H48.1608V39.134L46.0152 39.3486Z" fill="#00BEDF"/>
<path d="M53.0956 39.3486H50.0918V42.3525H53.0956V39.3486Z" fill="#00BEDF"/>
<path d="M57.8161 39.3486H54.8123V42.3525H57.8161V39.3486Z" fill="#00BEDF"/>
</svg>
