<svg width="64" height="64" viewBox="0 0 64 64" fill="none" xmlns="http://www.w3.org/2000/svg">
<circle cx="32" cy="32" r="32" fill="white"/>
<g clip-path="url(#clip0_18_57)">
<path d="M59.461 41.3465C59.5179 41.0445 59.7174 40.9253 59.904 40.9253C60.067 40.9253 60.2869 41.025 60.3206 41.3465H59.461ZM60.5559 41.4579C60.5559 41.025 60.2665 40.7237 59.8972 40.7237C59.5577 40.7237 59.2114 40.9751 59.2114 41.491C59.2114 41.892 59.4578 42.269 59.957 42.269C60.2736 42.269 60.4402 42.1533 60.5329 42.0906V41.8592C60.4595 41.9187 60.2772 42.0675 59.9835 42.0675C59.6974 42.0675 59.4474 41.8692 59.4474 41.5113H60.5559V41.4579ZM58.8435 39.9824H58.614V42.2391H58.8435V39.9824ZM57.1122 41.1439C57.2623 40.9819 57.4285 40.9253 57.5388 40.9253C57.7985 40.9253 58.0051 41.1638 58.0051 41.4818C58.0051 41.8193 57.768 42.0675 57.4557 42.0675C57.4253 42.0675 57.2824 42.0675 57.1122 42.0077V41.1439ZM56.883 42.1565C57.0553 42.2295 57.2451 42.269 57.4353 42.269C57.9317 42.269 58.2408 41.9486 58.2408 41.4618C58.2408 41.0816 58.0051 40.7237 57.5857 40.7237C57.339 40.7237 57.1853 40.8562 57.1122 40.9124V39.9824H56.883V42.1565ZM55.7412 40.9253C56.0539 40.9253 56.2803 41.1802 56.2803 41.4949C56.2803 41.809 56.0539 42.0675 55.7412 42.0675C55.4282 42.0675 55.1983 41.809 55.1983 41.4949C55.1983 41.1802 55.4282 40.9253 55.7412 40.9253ZM55.7377 40.7237C55.3082 40.7237 54.9623 41.0677 54.9623 41.4949C54.9623 41.9215 55.3082 42.269 55.7377 42.269C56.1674 42.269 56.5166 41.9215 56.5166 41.4949C56.5166 41.0677 56.1674 40.7237 55.7377 40.7237ZM54.5389 39.9824H54.2961V41.8421L52.6748 39.9824H52.462V42.2391H52.7049V40.3798L54.3258 42.2391H54.5389V39.9824ZM50.5545 41.7335C50.408 41.8791 50.2512 42.0344 49.9983 42.0344C49.7752 42.0344 49.6484 41.8855 49.6484 41.71C49.6484 41.5943 49.662 41.4882 50.0814 41.2236L50.5545 41.7335ZM50.1448 40.9356C49.9743 40.7732 49.8984 40.6276 49.8984 40.5119C49.8984 40.4026 49.9818 40.2438 50.2078 40.2438C50.4145 40.2438 50.5083 40.3922 50.5083 40.5218C50.508 40.7305 50.3113 40.859 50.1448 40.9356ZM50.8772 41.7335C51.033 41.5313 51.1433 41.3226 51.2167 41.114H50.9603C50.8607 41.3525 50.7902 41.4551 50.7139 41.5548L50.2977 41.1044C50.4514 41.0118 50.7436 40.8295 50.7436 40.5087C50.7436 40.2701 50.5577 40.0255 50.215 40.0255C49.8848 40.0255 49.662 40.2406 49.662 40.5283C49.662 40.6835 49.7254 40.8327 49.9313 41.0549C49.6119 41.2144 49.3827 41.4455 49.3827 41.7299C49.3827 42.0508 49.662 42.269 49.9586 42.269C50.378 42.269 50.6208 41.9945 50.7139 41.9087L51.0169 42.2391H51.3367L50.8772 41.7335ZM48.2642 40.8494C48.1875 40.8067 48.0443 40.7237 47.8376 40.7237C47.5081 40.7237 47.3588 40.942 47.3588 41.1239C47.3588 41.3725 47.5679 41.4786 47.7509 41.5644C47.9476 41.657 48.0844 41.7264 48.0844 41.8692C48.0844 41.9945 47.9476 42.0675 47.8308 42.0675C47.7509 42.0675 47.5944 42.0475 47.348 41.8987V42.1337C47.5052 42.216 47.651 42.269 47.8276 42.269C48.2008 42.269 48.32 42.0013 48.32 41.8524C48.32 41.6203 48.1277 41.5145 48.0478 41.4718C47.6911 41.2863 47.588 41.2365 47.588 41.1175C47.588 41.0146 47.6879 40.9253 47.8412 40.9253C47.9877 40.9253 48.1173 40.9883 48.2642 41.0777V40.8494ZM45.9591 41.3465C46.0157 41.0445 46.2155 40.9253 46.4014 40.9253C46.5647 40.9253 46.785 41.025 46.8179 41.3465H45.9591ZM47.0547 41.4579C47.0547 41.025 46.7657 40.7237 46.395 40.7237C46.0554 40.7237 45.7098 40.9751 45.7098 41.491C45.7098 41.892 45.9555 42.269 46.4555 42.269C46.7714 42.269 46.9376 42.1533 47.031 42.0906V41.8592C46.958 41.9187 46.775 42.0675 46.4824 42.0675C46.1955 42.0675 45.9459 41.8692 45.9459 41.5113H47.0547V41.4579ZM44.125 40.7536V42.2391H44.3546V41.187C44.4943 40.952 44.6841 40.9253 44.7711 40.9253C45.0344 40.9253 45.1307 41.1207 45.1307 41.3725V42.2391H45.3599V41.3525C45.3599 40.9687 45.1604 40.7237 44.8241 40.7237C44.6107 40.7237 44.4642 40.833 44.3546 40.9787V40.7536H44.125ZM42.8507 40.7536V42.2391H43.0799V41.5971C43.0799 41.5209 43.0799 41.3589 43.1333 41.2397C43.2031 41.0777 43.3665 40.9584 43.4997 40.9584C43.6297 40.9584 43.7396 41.0549 43.7894 41.0972L43.9126 40.8986C43.856 40.8526 43.6992 40.7237 43.5563 40.7237C43.4567 40.7237 43.36 40.7868 43.3303 40.8067C43.2067 40.8897 43.12 41.0182 43.0799 41.0816V40.7536H42.8507ZM42.1212 41.9446C42.0642 41.9981 41.9446 42.1042 41.7845 42.1042C41.6978 42.1042 41.5309 42.0543 41.5309 41.8745C41.5309 41.6886 41.738 41.5626 42.1212 41.4928V41.9446ZM42.5832 41.9778C42.4933 42.0508 42.4202 42.0842 42.3905 42.0842C42.3565 42.0842 42.35 42.0671 42.35 42.0045V41.187C42.35 41.0203 42.2705 40.7237 41.8447 40.7237C41.6015 40.7237 41.4317 40.843 41.359 40.9057V41.1403C41.4883 41.0235 41.6284 40.9253 41.8243 40.9253C42.1043 40.9253 42.1212 41.1143 42.1212 41.2105V41.3429C41.5012 41.4526 41.3024 41.6488 41.3024 41.8916C41.3024 42.1106 41.4783 42.269 41.6878 42.269C41.821 42.269 41.9378 42.2391 42.1244 42.1006C42.1376 42.17 42.1641 42.269 42.2874 42.269C42.3267 42.269 42.3969 42.2658 42.5832 42.1337V41.9778ZM40.1897 41.2065C40.6424 41.2065 40.7688 41.4252 40.7688 41.6142C40.7688 41.8065 40.6853 42.0212 40.1961 42.0212H39.7932V41.2065H40.1897ZM40.0392 40.2C40.406 40.2 40.5686 40.3096 40.5686 40.5881C40.5686 40.833 40.4192 40.9886 40.0392 40.9886H39.7928V40.2H40.0392ZM39.5439 39.9824V42.2391H40.3659C40.8354 42.2391 41.0349 41.892 41.0349 41.6338C41.0349 41.4419 40.9386 41.1375 40.4991 41.0545C40.589 41.0178 40.8351 40.8925 40.8351 40.5678C40.8351 40.1113 40.4493 39.9824 40.1127 39.9824H39.5439ZM38.4383 40.7536H38.189L37.7392 41.6901L37.2636 40.7536H37.014L37.6192 41.9354L37.1038 43H37.3499L38.4383 40.7536ZM35.7812 41.1439C35.9309 40.9819 36.0971 40.9253 36.207 40.9253C36.4674 40.9253 36.6734 41.1638 36.6734 41.4818C36.6734 41.8193 36.437 42.0675 36.124 42.0675C36.0939 42.0675 35.9506 42.0675 35.7812 42.0077V41.1439ZM35.5513 42.1565C35.7243 42.2295 35.9141 42.269 36.1035 42.269C36.5999 42.269 36.9094 41.9486 36.9094 41.4618C36.9094 41.0816 36.6734 40.7237 36.254 40.7237C36.0076 40.7237 35.8546 40.8562 35.7812 40.9124V39.9824H35.5513V42.1565Z" fill="#7686C2"/>
<path d="M50.6954 21H48.333V38.1726H50.6954V21Z" fill="#B0BB36"/>
<path d="M59.1768 37.8109L53.7644 32.3643L58.8408 26.5869L56.005 26.5819L50.6951 32.3856L56.4258 38.1726H59.5371L59.1768 37.8109Z" fill="#B0BB36"/>
<path d="M40.4304 26.3547C37.0842 26.3547 34.373 29.0487 34.373 32.3764C34.373 35.698 37.0864 38.3905 40.4304 38.3905C43.7713 38.3905 46.4825 35.698 46.4828 32.3764C46.4825 29.0497 43.7738 26.3547 40.4304 26.3547ZM40.4304 36.0448C38.3893 36.0402 36.7422 34.3998 36.7372 32.3764C36.7422 30.3508 38.3893 28.7097 40.4304 28.7047C42.4669 28.7097 44.1187 30.3508 44.1187 32.3764C44.1187 34.4023 42.4669 36.0402 40.4304 36.0448Z" fill="#7686C2"/>
<path d="M27.0435 26.4597C23.7005 26.4597 20.9907 29.1558 20.9907 32.4778C20.9907 35.8016 23.7005 38.498 27.0435 38.498C30.3871 38.498 33.0962 35.8016 33.0962 32.4778C33.0962 29.1558 30.3871 26.4597 27.0435 26.4597ZM23.3524 32.4778C23.3542 30.4504 25.0038 28.8122 27.0435 28.8068C29.0828 28.8122 30.7317 30.4504 30.7371 32.4778C30.7317 34.5037 29.0828 36.1427 27.0435 36.1462C25.0038 36.1427 23.3542 34.5037 23.3524 32.4778Z" fill="#154722"/>
<path d="M16.7496 32.3037C16.7449 30.2792 15.096 28.7393 13.056 28.7393C11.0539 28.7393 9.36415 30.3216 9.36415 32.2987V38.1616H7.00358L7 32.1887C7 29.1177 9.78533 26.3893 13.056 26.3893C16.3251 26.3893 19.1076 29.1131 19.1076 32.1887V38.1612H16.7496V32.3037Z" fill="#429644"/>
<path d="M59.9776 27.8385V26.8155H59.594V26.5997H60.6047V26.8155H60.2304V27.8385H59.9776ZM60.7537 27.8385V26.5997H61.148L61.3804 27.4546L61.6039 26.5997H62V27.8385H61.7594V26.8518L61.4893 27.8385H61.2626L60.994 26.8518V27.8385H60.7537Z" fill="#B0BB36"/>
</g>
<defs>
<clipPath id="clip0_18_57">
<rect width="55" height="22" fill="white" transform="translate(7 21)"/>
</clipPath>
</defs>
</svg>
